<svg width="91" height="87" viewBox="0 0 91 87" fill="none" xmlns="http://www.w3.org/2000/svg">
<path d="M90.5551 72.6416L79.3204 31.9623C78.4016 27.2559 76.2716 25.0459 73.181 23.0406C68.211 19.8075 65.0369 22.0993 61.1946 22.836C59.6911 23.1225 58.5635 22.8359 57.9788 22.1402C57.3941 21.4445 57.3106 20.5033 57.8535 19.1528C58.5635 17.393 58.9393 15.1421 58.9811 13.7507C59.3152 5.32017 53.0924 0.163699 45.4912 0C45.3659 0 45.2406 0 45.0736 0C45.0736 0 44.8229 0 44.6559 0C37.0547 0.163699 30.8318 5.32017 31.2077 13.7507C31.2495 15.1012 31.6253 17.393 32.3353 19.1118C32.8782 20.5033 32.7947 21.4446 32.21 22.0994C31.6253 22.7542 30.4977 23.1225 28.9942 22.836C25.1519 22.0993 21.226 19.8485 16.2561 23.0815C13.1655 25.0869 11.0354 27.2968 10.1584 32.0031L0.176695 72.7234C-0.950948 79.1895 3.43427 85.3692 10.0331 86.556C10.4507 86.6378 10.8683 86.7197 11.3278 86.8015C17.9265 87.9883 24.2331 83.7321 25.486 77.266C26.8642 70.3087 32.3353 61.5917 45.1152 62.2875C57.8952 61.5508 63.7841 70.186 65.2041 77.1842C66.457 83.6093 72.8052 87.8656 79.404 86.6787C79.8216 86.5969 80.2393 86.5151 80.6987 86.4332C87.2975 85.2464 91.6828 79.0667 90.5134 72.6006L90.5551 72.6416ZM45.157 56.3125C38.2659 56.3125 33.0453 50.2147 34.2148 43.5849L36.2195 32.1668C36.9713 27.9516 40.6883 24.8822 45.0736 24.8822C49.4171 24.8822 53.1759 27.9516 53.9276 32.1668L55.974 43.5849C57.1434 50.2557 51.9229 56.3125 45.0318 56.3534L45.157 56.3125Z" fill="white"/>
</svg>
