<svg width="117" height="117" viewBox="0 0 117 117" fill="none" xmlns="http://www.w3.org/2000/svg">
<g clip-path="url(#clip0_4458_2006)">
<path d="M109.565 16.1854C111.041 15.5735 112.372 15.3507 114.021 15.7958C115.352 16.1574 116.481 17.0472 117.117 18.243L117.204 18.3827C117.869 19.6899 118.187 21.0809 117.695 22.4715C116.972 24.5549 111.605 27.3315 111.476 27.4217C111.273 27.5886 110.984 27.9785 110.839 28.1454C110.492 28.5624 110.173 28.9794 109.913 29.452C109.161 30.8149 108.64 32.067 107.714 33.2352C106.557 34.6537 105.399 36.0163 103.981 37.2401C102.274 38.7142 100.538 40.1331 98.8604 41.6073C98.4843 41.941 98.0794 42.275 97.6455 42.5809C97.2405 42.9146 96.806 43.2208 96.3721 43.4989C96.2275 43.6099 96.0542 43.6934 95.8809 43.8045C95.823 43.8324 95.7936 43.8602 95.7646 43.8602C94.5786 45.0282 93.4214 46.1961 92.2354 47.3641L91.2227 48.3377L90.7021 48.8387C90.355 49.5341 89.8914 50.1741 89.4863 50.8417C88.4157 52.5384 85.9275 55.7643 83.0635 58.7958L82.543 59.2694C82.2247 59.6309 81.5878 60.0754 80.8936 60.5204C80.1702 60.9654 79.4178 61.5222 78.5498 62.0506C77.9424 62.4124 77.4512 63.3577 77.9141 63.8583C78.4059 64.4144 78.9554 64.9989 78.9844 65.0545C79.5051 65.6385 80.113 66.1389 80.7783 66.5282C81.299 66.8341 81.8195 67.1407 82.3691 67.4188L93.7773 77.8778C93.8072 77.9063 94.6298 78.5939 94.665 78.5995C94.8965 78.7663 95.1573 78.9609 95.3887 79.1278C95.5621 79.2389 95.7357 79.3223 95.9092 79.4335C96.3141 79.6559 99.3209 81.5183 99.5547 81.7977C101.609 83.2718 101.811 86.4152 100.712 88.4178C100.104 89.5303 98.745 90.4483 97.501 90.7821C96.8066 90.9768 96.1697 91.0042 95.5332 90.9208C94.6364 90.8373 93.7391 90.5034 92.958 90.0585C92.8713 90.0029 92.7556 89.947 92.6689 89.8915C91.83 89.363 91.1067 88.7512 90.5859 87.9168C90.441 87.6937 89.7473 86.3598 89.6025 86.1092C89.4001 85.7477 89.1679 85.3579 88.9365 84.9686C88.8787 84.8576 88.8214 84.774 88.7637 84.6629C88.7058 84.6073 88.7051 84.5516 88.7051 84.5516C88.6762 84.4962 88.6188 84.4683 88.5898 84.4129C87.664 83.3282 86.7376 82.2984 85.9854 81.1024C85.6672 80.5741 85.3198 80.0452 84.9727 79.4891C84.9426 79.4327 84.7133 79.2115 84.7129 79.1004C84.5973 78.9615 84.3658 78.7113 84.25 78.5721L84.1631 78.4881C84.0474 78.4047 83.9025 78.3489 83.7578 78.2655C83.4397 78.0987 83.1502 77.9323 82.832 77.7655C81.9062 77.2648 80.9808 76.7357 80.2285 75.9569C78.9266 74.594 78.0874 72.842 77.2773 71.201C77.0459 70.7282 75.5698 68.8927 74.6729 67.7801C74.3547 67.3909 73.7765 67.3627 73.4004 67.6961C72.2431 68.7253 71.2593 70.6729 71.1436 70.8954C70.6807 71.8966 70.2461 72.8975 69.7832 73.871C69.1756 75.1225 68.4235 76.1793 67.4688 77.2362C66.0511 78.7659 64.3446 80.1015 62.8691 81.6034C61.249 83.2443 58.4715 83.2996 56.6777 81.9647C54.6815 80.4628 54.4784 78.1825 55.4619 76.0965C56.7349 73.3986 58.2107 70.1715 60.6699 68.2801L60.7451 68.2225C62.0521 67.2118 63.3882 66.1779 64.8359 65.3319C65.646 64.8591 66.0514 64.1364 66.9482 63.2186C67.5269 62.6623 67.4976 61.8003 66.9189 61.244C65.5594 59.9926 63.6509 58.1569 62.5225 57.0721L62.5215 57.0711C62.0296 56.5708 61.1906 56.5437 60.6699 57.0165C60.0335 57.5727 59.2809 58.2119 59.0205 58.4344C57.4293 59.7694 55.722 60.9659 53.8125 61.995C52.6265 62.6346 51.4981 63.3579 50.4277 64.1366C48.9234 65.2212 47.3901 66.3058 45.8857 67.3905C45.0182 68.0021 42.6472 69.2251 42.4717 69.3651C42.0666 69.7267 41.6326 70.0611 41.2275 70.4227C37.7269 73.3708 34.8333 76.9303 30.9277 79.4335C29.8862 80.101 28.8156 80.7972 27.7451 81.4647L26.4434 82.2987C26.154 82.4656 25.8928 82.6601 25.6035 82.827C25.5159 82.8554 24.9967 83.1607 25.083 83.1053C24.0125 83.8285 23.0575 84.7182 22.0449 85.4969C21.177 86.1645 20.3381 86.8328 19.499 87.5282C17.7921 88.9466 16.1426 90.4204 14.5225 91.9501C14.4068 92.0613 14.2336 92.2007 14.0312 92.3397C13.6841 92.8682 13.2786 93.3409 12.7578 93.7303C12.4975 94.064 12.2375 94.3424 11.9482 94.6483C11.1093 95.4548 10.212 96.1777 9.37305 96.9842C7.20312 99.0703 3.818 98.9034 1.61914 96.9842C0.606594 96.0943 -0.000890821 94.537 -0.000976562 93.2577C-0.000976562 92.0617 0.606508 90.3089 1.61914 89.5301C1.99544 89.2519 3.06569 88.5291 3.23926 88.4178L3.76367 88.0877C3.94086 87.98 4.12154 87.8755 4.30957 87.7782C4.68568 87.5835 5.03307 87.361 5.40918 87.1385C6.10347 86.7214 6.79767 86.4429 7.5498 86.1092H7.6084C9.05487 85.4139 10.4437 84.6632 11.7744 83.7733C12.8738 83.0501 13.9734 82.3549 15.0439 81.6317C15.4489 81.3536 15.8538 81.0753 16.2588 80.7694C16.4031 80.6307 16.5185 80.5472 16.5479 80.5467C16.6346 80.4634 16.7506 80.3801 16.8662 80.2967V80.2958C18.4574 79.0999 20.0486 77.9319 21.4951 76.5692C24.4751 73.8156 27.3111 71.1171 30.8408 68.9754C33.5314 67.3623 36.1937 65.7213 38.7686 63.9413C39.7811 62.7454 40.8225 61.6885 42.0664 60.6874C43.2526 59.7139 44.4681 58.7683 45.6543 57.7948C48.2871 55.6809 50.3988 53.0104 53.292 51.2303C53.8705 50.8688 54.4205 50.5357 54.999 50.202C55.404 49.9795 55.462 49.4787 55.1729 49.1727C54.681 48.6164 54.044 47.9763 53.8125 47.7538C53.6679 47.6148 53.4945 47.4757 53.3789 47.3368C53.368 47.33 51.0624 45.8879 50.3408 44.8612C49.878 44.1937 49.5597 43.387 49.1836 42.6639C49.1835 42.636 49.1545 42.5525 49.0967 42.4969C48.8363 42.0799 48.4316 41.7736 47.9688 41.579C46.9851 41.1618 46.1455 40.3558 45.4512 39.577C44.6411 38.6591 43.7442 37.7967 42.8184 36.9901C42.1819 36.4339 41.5453 35.85 40.8799 35.2938C40.5617 34.9879 40.2147 34.7096 39.8965 34.4315C39.8965 34.4037 39.8386 34.3757 39.752 34.3202C39.6362 34.2367 39.5208 34.1526 39.4629 34.0692C39.5207 34.1526 39.5779 34.2089 39.6357 34.2645C39.5781 34.2367 39.5206 34.1808 39.4629 34.1805C38.7974 33.8468 38.1606 33.5407 37.4951 33.2069C37.177 33.0401 36.8299 32.9011 36.5117 32.7342C36.3671 32.6508 36.1639 32.5672 36.0771 32.5116C35.9328 32.456 35.7884 32.3728 35.6729 32.3172C35.0363 32.0113 34.5153 31.5381 34.0234 31.0653C33.358 30.4256 32.6343 29.814 31.8242 29.3133C31.1299 28.8961 30.1748 27.8948 30.1748 25.7254C30.1748 23.7786 31.9978 22.7493 33.9072 22.5545C35.1513 22.4155 36.5695 23.0827 37.6689 23.5555C38.1318 23.7502 38.566 23.9736 39 24.1961C40.0413 24.6967 40.7931 25.3365 41.4873 26.1708C41.3137 25.9761 41.2273 25.8927 41.5166 26.2264C41.6322 26.3653 41.7194 26.4762 41.835 26.6151C41.8909 26.6689 41.92 26.7229 41.9219 26.7264C41.9797 26.8099 42.0665 26.9218 42.1533 27.0331C42.2112 27.1441 42.2981 27.255 42.3848 27.3661C42.5872 27.6441 42.7605 27.8947 42.9629 28.1727C43.3101 28.7012 43.7153 29.2024 44.0625 29.7586C44.1204 29.7865 44.1785 29.87 44.2363 29.9256L44.6992 30.37C45.0174 30.6481 45.3068 30.9542 45.625 31.2323C46.3193 31.8998 46.8401 32.7902 47.708 33.2352C51.6139 35.2378 53.0029 38.7148 53.2344 38.826C53.9866 39.1876 54.7393 39.4928 55.4336 39.91C56.3304 40.4385 57.1114 41.3844 57.6611 42.3299C57.8926 42.6359 58.2399 43.0811 58.4424 43.3592C58.7317 43.6652 59.0499 43.9996 59.3682 44.3055C59.4566 44.3903 60.2372 45.0296 61.0752 45.7518C61.3934 46.0018 61.8274 46.0019 62.1455 45.7518C63.2737 44.8341 65.848 42.7205 66.167 42.4696C66.167 42.4696 72.6482 37.546 73.1689 37.1844C73.5162 36.934 74.2387 36.3777 74.3545 36.2665C74.8463 35.7937 75.3963 35.3491 75.917 34.9042C77.0743 33.9029 78.2031 32.8732 79.3604 31.8719C82.022 29.508 85.4647 28.4787 88.6182 26.8934C90.0937 26.1424 91.9749 25.4194 92.9297 24.1122C93.3637 23.5281 93.8843 22.9995 94.4629 22.5545C95.0993 22.0818 95.736 21.6372 96.4014 21.1922C97.8191 20.2188 99.5555 20.0233 101.089 19.328C101.696 19.0498 102.246 18.6329 102.854 18.327C103.606 17.9377 104.387 17.7424 105.226 17.6034C105.399 17.5756 105.544 17.5204 105.718 17.5204C106.701 17.3813 107.628 17.0196 108.524 16.6024C108.727 16.4912 108.958 16.4075 109.189 16.3241C109.421 16.2407 109.508 16.1855 109.565 16.1854ZM93.0449 33.3465C93.5368 32.7903 92.8426 32.0118 92.2061 32.4012C91.1647 33.0408 90.1812 33.6526 89.458 34.1532C88.7347 34.6538 87.2586 36.156 86.6221 36.7401C84.8286 38.4086 84.1051 39.3818 82.0225 40.661C81.1549 41.1892 78.8706 42.607 78.8105 42.6639C78.4345 42.942 78.0586 43.2482 77.6826 43.5262C77.3065 43.8322 75.8012 45.0279 74.4414 46.1405C73.0744 47.2356 71.6413 48.2671 70.1221 49.1786L69.4072 49.534C68.9154 49.8122 68.2209 50.2575 67.7002 50.619C67.3243 50.8972 67.2375 51.4259 67.5557 51.7596C67.9573 52.2009 68.3874 52.6967 68.3945 52.7049C68.6549 52.8996 68.077 52.4549 68.916 53.0946C69.1774 53.3461 70.5652 54.9308 71.5195 56.0428C71.8957 56.4598 72.5902 56.4041 72.8506 55.9315C73.5738 54.7078 74.2678 53.2614 74.6729 52.2323C75.1936 50.9252 76.0619 49.757 77.1611 48.8114C78.8392 47.3929 81.1541 45.5009 81.9932 44.9168C82.5138 44.5276 83.0633 44.166 83.584 43.8045C83.8444 43.6377 84.1342 43.4431 84.3945 43.2762C84.5681 43.165 86.2752 41.2737 87.1143 40.3836C87.664 39.7996 88.214 39.2153 88.7637 38.659C88.9372 38.4644 89.1101 38.2692 89.3125 38.1024C89.4572 37.9633 89.7177 37.5183 89.3994 38.0467C90.1516 36.8229 91.0199 35.6827 91.9746 34.5702C92.2639 34.2365 92.611 33.8193 93.0449 33.3465Z" fill="white"/>
</g>
<defs>
<clipPath id="clip0_4458_2006">
<rect width="117" height="117" fill="white"/>
</clipPath>
</defs>
</svg>
