<svg width="36" height="36" viewBox="0 0 36 36" fill="none" xmlns="http://www.w3.org/2000/svg">
<g clip-path="url(#clip0_4028_530)">
<path fill-rule="evenodd" clip-rule="evenodd" d="M33.7129 4.98046C34.1667 4.7923 34.5758 4.72357 35.083 4.86035C35.4925 4.9716 35.8403 5.24528 36.0361 5.61328L36.0625 5.65625C36.2672 6.05845 36.3652 6.48619 36.2139 6.91406C35.9913 7.55592 34.3354 8.41182 34.2998 8.4375C34.2375 8.48885 34.149 8.60877 34.1045 8.66015C33.9977 8.78852 33.8995 8.91701 33.8193 9.0625C33.5879 9.48179 33.4274 9.86716 33.1426 10.2266C32.7866 10.6629 32.4303 11.0825 31.9941 11.459C31.4691 11.9123 30.9351 12.3484 30.4189 12.8018C30.3033 12.9044 30.1784 13.0075 30.0449 13.1016C29.9204 13.2042 29.7867 13.2983 29.6533 13.3838C29.6088 13.418 29.5553 13.4443 29.502 13.4785C29.4841 13.4871 29.4747 13.4951 29.4658 13.4951C29.1009 13.8545 28.7448 14.2139 28.3799 14.5732L28.0684 14.873L27.9082 15.0273C27.8014 15.2413 27.6588 15.4382 27.5342 15.6435C27.2048 16.1656 26.4389 17.158 25.5576 18.0908L25.3975 18.2363C25.2995 18.3476 25.1043 18.4851 24.8906 18.6221C24.6681 18.759 24.436 18.9302 24.1689 19.0928C23.9822 19.2042 23.8313 19.4945 23.9736 19.6484C24.1248 19.8194 24.2934 19.9991 24.3027 20.0166C24.463 20.1963 24.6497 20.3509 24.8545 20.4707C25.0147 20.5648 25.1756 20.6586 25.3447 20.7441L28.8545 23.9619C28.8634 23.9705 29.119 24.1846 29.1279 24.1846C29.1991 24.2359 29.2794 24.2954 29.3506 24.3467C29.404 24.3809 29.4573 24.4072 29.5107 24.4414C29.6361 24.5103 30.5604 25.0833 30.6318 25.1689C31.2638 25.6225 31.3264 26.5889 30.9883 27.2051C30.8013 27.5474 30.3828 27.8299 30 27.9326C29.7864 27.9925 29.5903 28.0012 29.3945 27.9756C29.1187 27.9499 28.8428 27.8468 28.6025 27.71C28.5759 27.6929 28.5403 27.6762 28.5137 27.6592C28.2557 27.4967 28.0333 27.3083 27.873 27.0518C27.8286 26.9833 27.615 26.5725 27.5703 26.4951C27.5081 26.384 27.4364 26.2642 27.3652 26.1445L27.3115 26.0498C27.294 26.0328 27.2939 26.0156 27.2939 26.0156C27.285 25.9986 27.2677 25.9897 27.2588 25.9727C26.974 25.639 26.6885 25.323 26.457 24.9551C26.3591 24.7925 26.2523 24.6292 26.1455 24.458C26.1361 24.4405 26.0659 24.373 26.0654 24.3389C26.0298 24.2961 25.9585 24.2186 25.9229 24.1758L25.8965 24.1504C25.8609 24.1247 25.816 24.1077 25.7715 24.082C25.6736 24.0307 25.5842 23.9791 25.4863 23.9277C25.2016 23.7737 24.9169 23.6106 24.6855 23.3711C24.2851 22.9518 24.0266 22.413 23.7773 21.9082C23.7061 21.7627 23.2525 21.1978 22.9766 20.8555C22.8786 20.7357 22.7007 20.7274 22.585 20.8301C22.2297 21.146 21.9273 21.7428 21.8906 21.8135C21.7482 22.1216 21.6141 22.43 21.4717 22.7295C21.2848 23.1145 21.0534 23.4395 20.7598 23.7646C20.3236 24.2353 19.7978 24.6463 19.3438 25.1084C18.8452 25.6132 17.9914 25.6304 17.4395 25.2197C16.8252 24.7576 16.7628 24.0559 17.0654 23.4141C17.4571 22.584 17.9113 21.5917 18.668 21.0098L18.6904 20.9912C19.0925 20.6803 19.5039 20.3628 19.9492 20.1025C20.1985 19.9571 20.3237 19.7345 20.5996 19.4521C20.7777 19.281 20.7689 19.0149 20.5908 18.8437C20.1724 18.4586 19.5845 17.8943 19.2373 17.5605C19.0861 17.4066 18.8282 17.3978 18.668 17.543C18.4722 17.714 18.2404 17.9109 18.1602 17.9795C17.6705 18.3903 17.1452 18.7585 16.5576 19.0752C16.1927 19.272 15.8459 19.4948 15.5166 19.7344C15.0537 20.0681 14.5811 20.4016 14.1182 20.7353C13.8515 20.9233 13.1245 21.2987 13.0684 21.3428C12.9438 21.4539 12.8101 21.5568 12.6855 21.668C11.6084 22.5751 10.7183 23.6712 9.5166 24.4414C9.19612 24.6468 8.86649 24.861 8.53711 25.0664L8.13672 25.3223C8.0477 25.3736 7.96695 25.434 7.87793 25.4853C7.85501 25.4928 7.73806 25.5604 7.71777 25.5713C7.38855 25.7937 7.09464 26.0671 6.7832 26.3066C6.51619 26.512 6.25811 26.7177 6 26.9316C5.47487 27.368 4.96718 27.8214 4.46875 28.292C4.43317 28.3262 4.37963 28.3694 4.31738 28.4121C4.21062 28.5746 4.08588 28.7201 3.92578 28.8398C3.84566 28.9425 3.7648 29.0279 3.67578 29.1221C3.41762 29.3702 3.14195 29.5936 2.88379 29.8418C2.21616 30.4833 1.17453 30.4321 0.498047 29.8418C0.186468 29.5679 0 29.088 0 28.6943C8.54377e-05 28.3264 0.186583 27.7874 0.498047 27.5478C0.613776 27.4623 0.943657 27.2393 0.99707 27.2051C1.10374 27.1367 1.21061 27.0686 1.32617 27.0088C1.44186 26.9489 1.54838 26.88 1.66406 26.8115C1.87772 26.6831 2.09178 26.5978 2.32324 26.4951H2.34082C2.78593 26.2812 3.21354 26.0502 3.62305 25.7764C3.96129 25.5539 4.29956 25.3397 4.62891 25.1172C4.75349 25.0316 4.87835 24.9457 5.00293 24.8516C5.04728 24.809 5.08292 24.7832 5.0918 24.7832C5.11848 24.7576 5.15394 24.7317 5.18945 24.706C5.67904 24.3381 6.16918 23.9789 6.61426 23.5596C7.53104 22.7124 8.40338 21.8825 9.48926 21.2236C10.3171 20.7273 11.1365 20.2225 11.9287 19.6748C12.2403 19.3068 12.5606 18.9809 12.9434 18.6728C13.3083 18.3733 13.6829 18.0827 14.0479 17.7832C14.8578 17.1329 15.5074 16.3113 16.3975 15.7637C16.5755 15.6524 16.7448 15.549 16.9229 15.4463C17.0473 15.3778 17.0654 15.224 16.9766 15.1299C16.8252 14.9587 16.6288 14.7618 16.5576 14.6934C16.5131 14.6506 16.4594 14.6082 16.4238 14.5654C16.4103 14.557 15.7097 14.1173 15.4893 13.8037C15.3468 13.5983 15.2495 13.3495 15.1338 13.1269C15.1335 13.118 15.124 13.093 15.1064 13.0762C15.0264 12.9479 14.9021 12.8538 14.7598 12.7939C14.4572 12.6656 14.199 12.4173 13.9854 12.1777C13.7361 11.8953 13.4597 11.63 13.1748 11.3818C12.979 11.2107 12.7829 11.0305 12.5781 10.8594C12.4803 10.7653 12.3732 10.6793 12.2754 10.5937C12.2747 10.5853 12.2576 10.5764 12.2314 10.5596C12.1961 10.5341 12.1605 10.5089 12.1426 10.4834C12.1602 10.5088 12.1777 10.526 12.1953 10.543C12.1777 10.5344 12.1602 10.5178 12.1426 10.5176C11.9379 10.4149 11.7418 10.3204 11.5371 10.2178C11.4392 10.1664 11.3323 10.1236 11.2344 10.0723C11.1899 10.0466 11.1273 10.021 11.1006 10.0039C11.0562 9.98682 11.0121 9.96046 10.9766 9.94335C10.7807 9.84922 10.6201 9.70407 10.4688 9.55859C10.264 9.36175 10.0413 9.17357 9.79199 9.01953C9.57834 8.89113 9.28418 8.5825 9.28418 7.91503C9.28448 7.31641 9.84536 6.99944 10.4326 6.93945C10.8154 6.89666 11.2525 7.10255 11.5908 7.24804C11.7331 7.30789 11.8666 7.37595 12 7.44433C12.3205 7.59838 12.552 7.79599 12.7656 8.05273C12.7122 7.99284 12.6855 7.96675 12.7744 8.06933C12.81 8.1121 12.8365 8.14668 12.8721 8.18945C12.8899 8.20656 12.8994 8.22363 12.8994 8.22363C12.9171 8.24916 12.9432 8.2834 12.9697 8.31738C12.9875 8.35161 13.0143 8.38666 13.041 8.42089C13.1033 8.50643 13.1574 8.5834 13.2197 8.66894C13.3265 8.83136 13.4509 8.98528 13.5576 9.15625C13.5754 9.1648 13.5935 9.19089 13.6113 9.208L13.7539 9.34472C13.8517 9.43025 13.9402 9.52483 14.0381 9.61035C14.2517 9.81574 14.4126 10.0896 14.6797 10.2266C15.8812 10.8428 16.3087 11.9121 16.3799 11.9463C16.6113 12.0575 16.843 12.1519 17.0566 12.2803C17.3325 12.4429 17.5731 12.7336 17.7422 13.0244C17.8134 13.1185 17.9201 13.2562 17.9824 13.3418C18.0714 13.4358 18.1688 13.5388 18.2666 13.6328C18.2934 13.6585 18.534 13.8548 18.792 14.0771C18.8899 14.1542 19.0241 14.1542 19.1221 14.0771C19.4694 13.7946 20.2615 13.1444 20.3594 13.0674C20.3847 13.0482 22.3545 11.5519 22.5137 11.4414C22.6203 11.3645 22.8413 11.1941 22.8779 11.1592C23.0293 11.0137 23.1991 10.8762 23.3594 10.7393C23.7153 10.4313 24.063 10.1146 24.4189 9.80664C25.2379 9.07942 26.2974 8.76313 27.2676 8.27539C27.7216 8.04434 28.3 7.82114 28.5938 7.41894C28.7273 7.23929 28.8874 7.07633 29.0654 6.93945C29.2612 6.79401 29.4574 6.65739 29.6621 6.5205C30.0983 6.22105 30.6327 6.16119 31.1045 5.94726C31.2913 5.86168 31.4606 5.73276 31.6475 5.63867C31.8787 5.51903 32.119 5.45975 32.377 5.41699C32.4303 5.40844 32.475 5.39065 32.5283 5.39062C32.8309 5.34784 33.1157 5.23671 33.3916 5.10839C33.4539 5.07416 33.5255 5.04813 33.5967 5.02246C33.6678 4.9968 33.6951 4.98046 33.7129 4.98046ZM28.6289 10.2607C28.7802 10.0896 28.5669 9.84991 28.3711 9.96972C28.0507 10.1665 27.7479 10.3548 27.5254 10.5088C27.3028 10.6629 26.8492 11.1249 26.6533 11.3047C26.1014 11.8182 25.8782 12.1171 25.2373 12.5107C24.9705 12.6732 24.2679 13.1092 24.249 13.1269C24.1334 13.2125 24.018 13.307 23.9023 13.3926C23.7866 13.4867 23.3237 13.8549 22.9053 14.1973C22.5446 14.4862 22.1689 14.7606 21.7744 15.0098L21.3564 15.2412C21.2051 15.3268 20.9913 15.4639 20.8311 15.5752C20.7154 15.6607 20.6884 15.8231 20.7861 15.9258C20.9108 16.0627 21.0449 16.2168 21.0449 16.2168C21.1245 16.2763 20.9471 16.1402 21.2051 16.3369C21.2859 16.4147 21.7124 16.9022 22.0059 17.2441C22.1215 17.3723 22.3347 17.355 22.415 17.21C22.6376 16.8334 22.8519 16.3879 22.9766 16.0713C23.1368 15.6691 23.4039 15.3095 23.7422 15.0185C24.2585 14.5821 24.9704 14 25.2285 13.8203C25.3886 13.7006 25.5577 13.5897 25.7178 13.4785C25.7979 13.4272 25.8877 13.3668 25.9678 13.3154C26.0229 13.2792 26.547 12.6991 26.8047 12.4258C26.9737 12.2462 27.1425 12.0665 27.3115 11.8955C27.3649 11.8356 27.4182 11.775 27.4805 11.7236C27.525 11.6808 27.6057 11.5444 27.5078 11.707C27.7393 11.3305 28.006 10.979 28.2998 10.6367C28.3887 10.5341 28.4956 10.406 28.6289 10.2607Z" fill="white"/>
</g>
<defs>
<clipPath id="clip0_4028_530">
<rect width="36" height="36" fill="white"/>
</clipPath>
</defs>
</svg>
