<svg width="36" height="36" viewBox="0 0 36 36" fill="none" xmlns="http://www.w3.org/2000/svg">
<path fill-rule="evenodd" clip-rule="evenodd" d="M4.07636 25.7362C9.45758 17.001 16.4924 16.7311 24.7873 20.742C27.0882 21.8512 29.6441 23.0552 30.9289 23.659C31.3977 23.8735 31.6078 24.4246 31.4016 24.8963L28.4777 31.5028C28.474 31.5118 28.4698 31.5199 28.466 31.5282C28.2418 31.9982 27.6781 32.1984 27.2072 31.9744L21.1359 29.0955C16.7241 26.9913 14.2768 26.5002 11.8439 30.5116C11.4997 31.0831 11.1827 31.6169 10.9367 32.0272C10.9255 32.0465 10.9135 32.065 10.9016 32.0828C10.6098 32.5156 10.0228 32.6297 9.59004 32.3387L3.44843 28.5633C3.01043 28.2926 2.86953 27.7216 3.13203 27.2791C3.42516 26.8166 3.76973 26.2362 4.07636 25.7362ZM25.0617 4.41683C25.3534 3.98412 25.9405 3.87008 26.3732 4.16097L32.5148 7.93636C32.9528 8.20711 33.0947 8.77804 32.8322 9.22054C32.539 9.68322 32.1936 10.2633 31.8869 10.7635C26.5057 19.4988 19.471 19.7686 11.176 15.7576C8.87501 14.6484 6.3191 13.4444 5.03437 12.8407C4.5657 12.6261 4.35548 12.0751 4.56172 11.6034L7.48652 4.99691C7.49023 4.98801 7.49355 4.97968 7.49726 4.97152C7.72151 4.50127 8.28603 4.30098 8.75703 4.52523L14.8273 7.40413C19.2393 9.50849 21.6865 9.99931 24.1193 5.98812C24.4636 5.41662 24.7806 4.88274 25.0266 4.47249C25.0377 4.45316 25.0498 4.43469 25.0617 4.41683Z" fill="white"/>
</svg>
