<svg width="36" height="36" viewBox="0 0 36 36" fill="none" xmlns="http://www.w3.org/2000/svg">
<path fill-rule="evenodd" clip-rule="evenodd" d="M12.4706 13.7211C10.0665 13.7211 8.11765 15.6368 8.11765 18C8.11765 20.3632 10.0665 22.2789 12.4706 22.2789H16.9412V18V13.7211H12.4706ZM23.4118 11.6395L23.5294 11.6395C25.9335 11.6395 27.8824 9.72372 27.8824 7.36054C27.8824 4.99737 25.9335 3.08163 23.5294 3.08163H19.0588V11.6395L23.4118 11.6395ZM27.0778 12.6803C28.8379 11.5435 30 9.58545 30 7.36054C30 3.84771 27.103 1 23.5294 1H19.0588H18H16.9412H12.4706C8.89698 1 6 3.84771 6 7.36054C6 9.58545 7.16213 11.5435 8.92224 12.6803C7.16213 13.817 6 15.7751 6 18C6 20.2249 7.16213 22.183 8.92224 23.3197C7.16213 24.4565 6 26.4146 6 28.6395C6 32.1596 8.93367 35 12.4998 35C16.0985 35 19.0588 32.1337 19.0588 28.5816V24.3605V23.3197V22.7062C20.2082 23.734 21.7355 24.3605 23.4118 24.3605H23.5294C27.103 24.3605 30 21.5128 30 18C30 15.7751 28.8379 13.817 27.0778 12.6803ZM23.5294 13.7211L23.4118 13.7211C21.0077 13.7211 19.0588 15.6368 19.0588 18C19.0588 20.3632 21.0077 22.2789 23.4118 22.2789H23.5294C25.9335 22.2789 27.8824 20.3632 27.8824 18C27.8824 15.6368 25.9335 13.7211 23.5294 13.7211ZM8.11765 28.6395C8.11765 26.2763 10.0665 24.3605 12.4706 24.3605H16.9412V28.5816C16.9412 30.9695 14.9438 32.9184 12.4998 32.9184C10.0883 32.9184 8.11765 30.9953 8.11765 28.6395ZM16.9412 11.6395H12.4706C10.0665 11.6395 8.11765 9.72372 8.11765 7.36054C8.11765 4.99737 10.0665 3.08163 12.4706 3.08163H16.9412V11.6395Z" fill="white"/>
</svg>
