<svg width="104" height="114" viewBox="0 0 104 114" fill="none" xmlns="http://www.w3.org/2000/svg">
<path d="M103.414 59.4142C104.195 58.6332 104.195 57.3668 103.414 56.5858L90.6863 43.8579C89.9052 43.0768 88.6389 43.0768 87.8579 43.8579C87.0768 44.6389 87.0768 45.9052 87.8579 46.6863L99.1716 58L87.8579 69.3137C87.0768 70.0947 87.0768 71.3611 87.8579 72.1421C88.6389 72.9232 89.9052 72.9232 90.6863 72.1421L103.414 59.4142ZM0 58L1.74846e-07 60L102 60L102 58L102 56L-1.74846e-07 56L0 58Z" fill="white"/>
<path d="M52.4142 0.585792C51.6332 -0.195259 50.3668 -0.195259 49.5858 0.585793L36.8579 13.3137C36.0768 14.0948 36.0768 15.3611 36.8579 16.1421C37.6389 16.9232 38.9052 16.9232 39.6863 16.1421L51 4.82843L62.3137 16.1421C63.0948 16.9232 64.3611 16.9232 65.1421 16.1421C65.9232 15.3611 65.9232 14.0948 65.1421 13.3137L52.4142 0.585792ZM51 114L53 114L53 2L51 2L49 2L49 114L51 114Z" fill="white"/>
</svg>
