<svg width="36" height="36" viewBox="0 0 36 36" fill="none" xmlns="http://www.w3.org/2000/svg">
<path fill-rule="evenodd" clip-rule="evenodd" d="M17.2412 17.917C17.919 17.9171 18.5117 18.4587 18.5117 19.167V33.459C14.8685 33.4589 11.9034 30.5424 11.9033 26.959V24.417H9.19141C5.54841 24.4168 2.58323 21.5002 2.58301 17.917H17.2412ZM24.4854 10.707C25.2053 10.7071 25.7557 11.2905 25.7559 11.957V26.292C22.1127 26.2918 19.1475 23.3745 19.1475 19.791V17.208H16.4365C12.7932 17.208 9.82715 14.2906 9.82715 10.707H24.4854ZM31.7295 3.54102C32.4497 3.54104 33 4.08265 33 4.79102V19.084C29.3569 19.0838 26.3916 16.1664 26.3916 12.583V10.041H23.6807C20.0375 10.041 17.0715 7.12446 17.0713 3.54102H31.7295Z" fill="white"/>
</svg>
