<svg width="41" height="120" viewBox="0 0 41 120" fill="none" xmlns="http://www.w3.org/2000/svg">
<g clip-path="url(#clip0_4458_2015)">
<path d="M4.98075 61.406H3.16357V106.655C3.16357 106.655 10.1078 112.205 18.9584 113.057L18.8205 109.401C12.3955 107.089 8.10402 95.31 4.98886 61.406H4.98075Z" fill="white"/>
<path d="M12.5334 28.3623C11.7221 25.5588 11.2516 22.7881 11.2516 20.0503C11.2516 14.8122 13.2392 12.0087 16.2083 11.189C16.1272 10.0004 16.0704 8.90195 16.046 7.94287C7.2441 9.46757 2.1333 16.591 2.1333 27.3786C2.1333 27.7065 2.1333 28.0344 2.14953 28.3623H12.5334Z" fill="white"/>
<path d="M32.7251 34.3879C33.7554 40.0031 34.453 46.6183 34.737 54.2336H36.5623V37.7242C35.6861 36.3553 34.4125 35.2487 32.7332 34.3879H32.7251Z" fill="white"/>
<path d="M36.5544 28.3627V14.2797C33.2526 11.0992 29.2451 9.05805 24.9374 8.16455C24.8888 9.8122 24.7508 11.8533 24.5562 14.0256C27.2576 16.8619 29.6102 21.6491 31.3868 28.3709H36.5463L36.5544 28.3627Z" fill="white"/>
<path d="M39.1098 43.1751H40.9919V29.502H21.6925C21.6925 29.502 22.9175 20.2801 23.5178 13.0419C23.6719 11.1483 23.7855 9.38589 23.8261 7.95956C23.8261 7.63987 23.8423 7.33657 23.8423 7.04966C23.8342 0.680375 22.163 0 20.5 0C18.837 0 17.1658 0.680375 17.1658 7.04966C17.1658 7.27919 17.1658 7.52511 17.1739 7.77922C17.1901 8.71371 17.2469 9.79575 17.3281 10.9762C17.8229 18.3865 19.3075 29.4938 19.3075 29.4938H0V43.1669H1.88207C1.88207 40.6913 2.47428 38.5846 3.6668 36.8468C5.51642 34.1581 8.81817 32.3793 13.6045 31.5595C14.6591 31.3792 15.7867 31.2398 16.9873 31.1579L17.3118 39.6912C17.109 39.2978 16.9062 38.9043 16.7034 38.519C16.6872 38.4862 16.671 38.4617 16.6547 38.4289C16.6547 38.4289 16.6547 38.4207 16.6547 38.4125C16.4681 38.0354 16.2816 37.6583 16.095 37.2812C15.7705 36.6173 15.4541 35.9615 15.1621 35.3057C14.7564 34.4122 14.3752 33.5187 14.0263 32.6334C8.99664 33.4449 5.71923 35.3057 4.13732 38.2567C5.41096 42.0111 7.22002 45.79 9.28057 49.6018C9.40226 49.8313 9.53205 50.069 9.66185 50.2985C9.77543 50.5117 9.89711 50.7248 10.0107 50.9379C10.1161 51.1346 10.2297 51.3314 10.3433 51.5281C10.4974 51.8068 10.6516 52.0855 10.8138 52.3642C10.8787 52.4708 10.9355 52.5774 11.0004 52.6921C12.5336 55.3808 14.1642 58.0941 15.8029 60.8156C15.8597 60.9058 15.9084 60.996 15.9652 61.0861C16.0544 61.2419 16.1518 61.3895 16.241 61.5452C16.5168 62.0124 16.7926 62.4715 17.0685 62.9387C17.2713 63.2748 17.466 63.6109 17.6688 63.947C17.8716 64.2831 18.0663 64.6274 18.2691 64.9635L19.9565 109.68L20.0863 113.106L20.3459 119.975H20.5325L20.8002 113.131L20.93 109.803L22.3983 72.3246C22.5768 72.6607 22.7471 72.9968 22.9175 73.3329C23.096 73.6772 23.2663 74.0215 23.4367 74.3657C23.4691 74.4313 23.5016 74.5051 23.534 74.5707C23.7693 75.0543 24.0046 75.5298 24.2317 76.0134C24.2642 76.0872 24.2966 76.161 24.3372 76.2265C24.6049 76.7839 24.8564 77.3496 25.1078 77.907C25.1078 77.907 25.1078 77.907 25.1078 77.9152C25.2457 78.2267 25.3837 78.5382 25.5135 78.8415C27.9877 84.6205 29.6345 90.4816 29.6345 96.4492C29.6345 105.876 26.276 109.524 22.0414 109.794L21.9116 113.114C33.6177 112.786 40.059 104.565 40.059 93.1457C40.059 81.7269 35.3781 71.2262 29.7887 61.2255C29.4723 60.6599 29.1559 60.0943 28.8314 59.5369C27.3469 56.9383 25.8217 54.389 24.3128 51.8642C24.1506 51.5937 23.9964 51.3314 23.8342 51.0609C23.818 51.0363 23.8017 51.0117 23.7855 50.9789C23.607 50.6838 23.4367 50.3887 23.2582 50.0936L23.9964 31.1333C27.3955 31.3792 30.2105 32.0104 32.4577 33.0023C34.145 33.7482 35.5079 34.6991 36.5463 35.8549C38.258 37.7485 39.1098 40.1913 39.1098 43.1505V43.1751Z" fill="white"/>
</g>
<defs>
<clipPath id="clip0_4458_2015">
<rect width="41" height="120" fill="white"/>
</clipPath>
</defs>
</svg>
